<?xml version="1.0" standalone="no"?>
<svg viewBox="0 0 200 200" xmlns="http://www.w3.org/2000/svg">
  <path fill="#D0E2FF" d="M45.4,-75.4C59.6,-70.3,72.6,-59.9,75.5,-46.4C78.4,-32.9,71.2,-16.5,70.9,-0.1C70.7,16.2,77.4,32.3,72.5,42.4C67.7,52.5,51.3,56.5,37.3,60.7C23.3,64.8,11.7,69,-0.4,69.8C-12.5,70.5,-25,67.8,-37,62.5C-49.1,57.2,-60.6,49.4,-65.9,38.6C-71.2,27.7,-70.4,13.9,-70.4,0C-70.4,-13.9,-71.3,-27.8,-67.8,-41.7C-64.2,-55.7,-56.3,-69.8,-44.3,-76.1C-32.3,-82.5,-16.1,-81.3,-0.3,-80.8C15.6,-80.3,31.1,-80.5,45.4,-75.4Z" transform="translate(100 100)" />
</svg>
